<svg width="46" height="33" viewBox="0 0 46 33" fill="none" xmlns="http://www.w3.org/2000/svg">
<path fill-rule="evenodd" clip-rule="evenodd" d="M0.0177918 18.986L0 0.0346794L5.25203 2.19728L5.26575 16.8146L15.6703 27.1996L30.3707 27.1858L40.7556 16.7813L40.742 2.22785L45.9785 0.0716171L45.9963 18.9429L32.5421 32.4223L13.4972 32.4402L0.0177918 18.986Z" fill="white"/>
<mask id="mask0_2_464" style="mask-type:alpha" maskUnits="userSpaceOnUse" x="10" y="20" width="19" height="7">
<path d="M15.6107 20.4318L11.6157 22.0868L10.5884 24.8834L16.4097 26.8809H28.9355V22.0868L18.4643 21.3449L15.6107 20.4318Z" fill="#FF0000"/>
</mask>
<g mask="url(#mask0_2_464)">
<path fill-rule="evenodd" clip-rule="evenodd" d="M6.0358 16.5285L6.02264 2.51124L9.90659 4.11051L9.91674 14.9227L17.611 22.6026L28.4821 22.5923L36.162 14.8981L36.1519 4.11451L40.0243 2.51996L40.0375 16.4966L30.088 26.4648L16.004 26.478L6.0358 16.5285Z" fill="white"/>
</g>
<mask id="mask1_2_464" style="mask-type:alpha" maskUnits="userSpaceOnUse" x="26" y="0" width="20" height="32">
<rect x="26.5956" width="19.4045" height="31.8462" fill="#C4C4C4"/>
</mask>
<g mask="url(#mask1_2_464)">
<path fill-rule="evenodd" clip-rule="evenodd" d="M6.03586 16.5319L6.02271 2.5146L9.90665 4.11387L9.9168 14.9261L17.6111 22.606L28.4822 22.5958L36.162 14.9015L36.1519 4.11785L40.0244 2.5233L40.0375 16.5L30.088 26.4682L16.0041 26.4814L6.03586 16.5319Z" fill="white"/>
</g>
</svg>
